Results
version=1
nRows=6
nColumns=43
inDegrees=yes
endheader
time	pelvis_tilt	pelvis_list	pelvis_rotation	pelvis_tx	pelvis_ty	pelvis_tz	hip_flexion_r	hip_adduction_r	hip_rotation_r	knee_angle_r	ankle_angle_r	subtalar_angle_r	mtp_angle_r	hip_flexion_l	hip_adduction_l	hip_rotation_l	knee_angle_l	ankle_angle_l	subtalar_angle_l	mtp_angle_l	lumbar_extension	lumbar_bending	lumbar_rotation	neck_flexion	neck_lateral_bending	neck_rotation	arm_flex_r	arm_add_r	arm_rot_r	elbow_flex_r	pro_sup_r	wrist_flex_r	wrist_dev_r	hand_finger_flex_r	arm_flex_l	arm_add_l	arm_rot_l	elbow_flex_l	pro_sup_l	wrist_flex_l	wrist_dev_l	hand_finger_flex_l
      1.49000000	      3.15929661	     -1.19932016	      4.47198645	      1.42692896	      0.90267438	      0.36886111	     10.12297811	      4.56401175	     -6.20626833	    -24.71614707	     18.27106079	    -13.56572098	      0.00000000	      2.46884689	     -6.96916773	     -3.65347723	    -61.55904716	      1.48866493	     -5.99938053	      0.00000000	     -4.39590323	      0.21756562	     -5.83796772	    -11.37664192	     -0.94948393	     -0.45288432	    -17.11176108	    -11.38622440	      0.12844334	     46.07269078	    -67.23641015	     -5.19670729	    -20.88378595	     -8.74962009	     -3.41827361	    -14.90992860	     -3.52957454	     71.60495243	    -55.61852611	    -21.53658545	     -3.61431432	     29.38219333
      1.49500000	      3.01890804	     -1.10281635	      4.36256990	      1.43305732	      0.90315383	      0.36950418	      9.62693231	      4.61753883	     -6.04614351	    -24.34255177	     18.87678638	    -13.54058368	      0.00000000	      3.40385667	     -6.88571594	     -3.70773123	    -61.87453580	      2.38184230	     -6.40500765	      0.00000000	     -4.26239083	      0.01157817	     -5.26539847	    -11.52537910	     -0.78950901	     -0.84579084	    -17.05705974	    -11.45686153	     -0.06093528	     46.56536389	    -67.60913732	     -4.62505881	    -20.22641599	     -8.49340362	     -3.59073583	    -14.72898302	     -3.35961503	     70.59020650	    -55.08435858	    -21.65760627	     -3.70943500	     29.16519183
      1.50000000	      3.00633756	     -0.95129630	      4.33128680	      1.43940543	      0.90405495	      0.36966729	      9.04933365	      4.50657850	     -6.02727274	    -24.16524754	     18.90504249	    -13.52215067	      0.00000000	      4.23473131	     -6.84845276	     -3.92743668	    -62.11335553	      2.59016271	     -6.41367415	      0.00000000	     -4.27435815	     -0.19420035	     -5.16187944	    -11.52562871	     -0.72364704	     -0.95151563	    -16.64014466	    -11.53366482	     -0.20779702	     46.84055973	    -67.69094172	     -4.52629566	    -20.11633903	     -8.45072562	     -4.16498978	    -14.69996435	     -3.31576492	     69.90894411	    -54.99766276	    -21.71309068	     -3.79111823	     29.11651282
      1.50500000	      2.84864515	     -0.97675579	      4.25819472	      1.44540683	      0.90452796	      0.36985848	      8.48140581	      4.63486320	     -5.82722131	    -23.57108155	     19.13687742	    -13.41270320	      0.00000000	      5.30194948	     -6.84458451	     -3.89188108	    -62.38326794	      3.60543134	     -6.39034092	      0.00000000	     -4.05727832	     -0.18327710	     -4.64699336	    -11.81201000	     -0.66797183	     -1.21241341	    -16.50802481	    -11.65769850	     -0.59419440	     47.40571342	    -68.15404818	     -4.13320732	    -19.78440643	     -8.27137323	     -4.29600770	    -14.24825948	     -3.39980364	     68.63089827	    -54.59518338	    -21.77700939	     -4.00246872	     28.94111167
      1.51000000	      2.74166284	     -0.90945881	      4.12421977	      1.45163468	      0.90499475	      0.37023905	      7.82138178	      4.65372444	     -5.67993788	    -22.94698529	     19.20218535	    -13.36420682	      0.00000000	      6.21511972	     -6.88131223	     -4.21476103	    -62.49204764	      3.87914912	     -6.34929364	      0.00000000	     -3.93096561	     -0.32837596	     -4.36695327	    -11.76974136	     -0.52687702	     -1.38016268	    -16.15251004	    -11.80031962	     -0.71648866	     47.79343901	    -68.29184476	     -4.01029590	    -19.65402908	     -8.21063101	     -4.80658416	    -14.18142290	     -3.33483120	     67.91289793	    -54.47399550	    -21.80009416	     -4.08812678	     28.87438869
      1.51500000	      2.60331380	     -0.98867044	      3.96653154	      1.45770149	      0.90547827	      0.37071856	      7.20883993	      4.83911929	     -5.41808749	    -22.25982337	     19.31399689	    -13.29140042	      0.00000000	      7.11613329	     -6.97794064	     -4.37307499	    -62.47653520	      4.27861355	     -6.33536317	      0.00000000	     -3.75716258	     -0.31627570	     -3.98332690	    -11.91458344	     -0.41671615	     -1.56577093	    -15.87569811	    -11.92415875	     -0.87795387	     48.21220090	    -68.48997947	     -3.87325205	    -19.50862576	     -8.14338919	     -5.17509664	    -13.98047631	     -3.39369189	     67.01370790	    -54.32736442	    -21.80516706	     -4.21394869	     28.79314484
